REM DIRINDEX 1\2,1\3,1\4,1\6,1\5\7,1\5\8
REM DIRNAME cjc114,folder01,folder02,folder03,folder04,folder05,folder06,folder07
TITLE ""
FILE "DB4500_5th_6C_48.mp3" MP3
  TRACK 01 AUDIO
    TITLE "2:cjc114_5023"
    INDEX 01 00:00:00
  TRACK 02 AUDIO
    TITLE "0:"
    INDEX 01 00:01:05
  TRACK 03 AUDIO
    TITLE "3:cjc114_5024"
    INDEX 01 00:01:21
  TRACK 04 AUDIO
    TITLE "0:"
    INDEX 01 00:02:38
  TRACK 05 AUDIO
    TITLE "4:cjc114_5025"
    INDEX 01 00:02:51
  TRACK 06 AUDIO
    TITLE "0:"
    INDEX 01 00:05:32
  TRACK 07 AUDIO
    TITLE "4:cjc114_5026"
    INDEX 01 00:05:65
  TRACK 08 AUDIO
    TITLE "0:"
    INDEX 01 00:08:62
  TRACK 09 AUDIO
    TITLE "2:cjc114_5027"
    INDEX 01 00:09:24
  TRACK 10 AUDIO
    TITLE "0:"
    INDEX 01 00:10:35
  TRACK 11 AUDIO
    TITLE "3:cjc114_5028"
    INDEX 01 00:10:49
  TRACK 12 AUDIO
    TITLE "0:"
    INDEX 01 00:11:58
  TRACK 13 AUDIO
    TITLE "4:cjc114_5029"
    INDEX 01 00:12:01
  TRACK 14 AUDIO
    TITLE "0:"
    INDEX 01 00:15:34
  TRACK 15 AUDIO
    TITLE "2:cjc114_5030"
    INDEX 01 00:15:72
  TRACK 16 AUDIO
    TITLE "0:"
    INDEX 01 00:17:06
  TRACK 17 AUDIO
    TITLE "3:cjc114_5031"
    INDEX 01 00:17:20
  TRACK 18 AUDIO
    TITLE "0:"
    INDEX 01 00:18:33
  TRACK 19 AUDIO
    TITLE "4:cjc114_5032"
    INDEX 01 00:18:46
  TRACK 20 AUDIO
    TITLE "0:"
    INDEX 01 00:21:35
  TRACK 21 AUDIO
    TITLE "2:cjc114_5033"
    INDEX 01 00:22:13
  TRACK 22 AUDIO
    TITLE "0:"
    INDEX 01 00:23:40
  TRACK 23 AUDIO
    TITLE "3:cjc114_5034"
    INDEX 01 00:23:55
  TRACK 24 AUDIO
    TITLE "0:"
    INDEX 01 00:24:61
  TRACK 25 AUDIO
    TITLE "4:cjc114_5035"
    INDEX 01 00:24:74
  TRACK 26 AUDIO
    TITLE "0:"
    INDEX 01 00:28:02
  TRACK 27 AUDIO
    TITLE "2:cjc114_5036"
    INDEX 01 00:28:43
  TRACK 28 AUDIO
    TITLE "0:"
    INDEX 01 00:29:48
  TRACK 29 AUDIO
    TITLE "3:cjc114_5037"
    INDEX 01 00:29:62
  TRACK 30 AUDIO
    TITLE "0:"
    INDEX 01 00:31:00
  TRACK 31 AUDIO
    TITLE "4:cjc114_5038"
    INDEX 01 00:31:14
  TRACK 32 AUDIO
    TITLE "0:"
    INDEX 01 00:34:08
  TRACK 33 AUDIO
    TITLE "2:cjc114_5039"
    INDEX 01 00:34:49
  TRACK 34 AUDIO
    TITLE "0:"
    INDEX 01 00:37:52
  TRACK 35 AUDIO
    TITLE "3:cjc114_5040"
    INDEX 01 00:37:65
  TRACK 36 AUDIO
    TITLE "0:"
    INDEX 01 00:39:31
  TRACK 37 AUDIO
    TITLE "4:cjc114_5041"
    INDEX 01 00:39:54
  TRACK 38 AUDIO
    TITLE "0:"
    INDEX 01 00:43:72
  TRACK 39 AUDIO
    TITLE "2:cjc114_5042"
    INDEX 01 00:44:34
  TRACK 40 AUDIO
    TITLE "0:"
    INDEX 01 00:45:49
  TRACK 41 AUDIO
    TITLE "3:cjc114_5043"
    INDEX 01 00:45:63
  TRACK 42 AUDIO
    TITLE "0:"
    INDEX 01 00:47:15
  TRACK 43 AUDIO
    TITLE "4:cjc114_5044"
    INDEX 01 00:47:28
  TRACK 44 AUDIO
    TITLE "0:"
    INDEX 01 00:50:35
  TRACK 45 AUDIO
    TITLE "2:cjc114_5045"
    INDEX 01 00:50:70
  TRACK 46 AUDIO
    TITLE "0:"
    INDEX 01 00:52:12
  TRACK 47 AUDIO
    TITLE "3:cjc114_5046"
    INDEX 01 00:52:28
  TRACK 48 AUDIO
    TITLE "0:"
    INDEX 01 00:53:39
  TRACK 49 AUDIO
    TITLE "4:cjc114_5047"
    INDEX 01 00:53:53
  TRACK 50 AUDIO
    TITLE "0:"
    INDEX 01 00:57:60
  TRACK 51 AUDIO
    TITLE "2:cjc114_5048"
    INDEX 01 00:58:24
  TRACK 52 AUDIO
    TITLE "0:"
    INDEX 01 00:59:28
  TRACK 53 AUDIO
    TITLE "3:cjc114_5049"
    INDEX 01 00:59:39
  TRACK 54 AUDIO
    TITLE "0:"
    INDEX 01 01:01:07
  TRACK 55 AUDIO
    TITLE "4:cjc114_5050"
    INDEX 01 01:01:21
  TRACK 56 AUDIO
    TITLE "0:"
    INDEX 01 01:04:33
  TRACK 57 AUDIO
    TITLE "2:cjc114_5051"
    INDEX 01 01:04:72
  TRACK 58 AUDIO
    TITLE "0:"
    INDEX 01 01:06:08
  TRACK 59 AUDIO
    TITLE "3:cjc114_5052"
    INDEX 01 01:06:20
  TRACK 60 AUDIO
    TITLE "0:"
    INDEX 01 01:07:64
  TRACK 61 AUDIO
    TITLE "4:cjc114_5053"
    INDEX 01 01:08:01
  TRACK 62 AUDIO
    TITLE "0:"
    INDEX 01 01:12:17
  TRACK 63 AUDIO
    TITLE "2:cjc114_5054"
    INDEX 01 01:12:52
  TRACK 64 AUDIO
    TITLE "0:"
    INDEX 01 01:13:67
  TRACK 65 AUDIO
    TITLE "3:cjc114_5055"
    INDEX 01 01:14:06
  TRACK 66 AUDIO
    TITLE "0:"
    INDEX 01 01:15:35
  TRACK 67 AUDIO
    TITLE "4:cjc114_5056"
    INDEX 01 01:15:46
  TRACK 68 AUDIO
    TITLE "0:"
    INDEX 01 01:19:09
  TRACK 69 AUDIO
    TITLE "2:cjc114_5057"
    INDEX 01 01:19:66
  TRACK 70 AUDIO
    TITLE "0:"
    INDEX 01 01:21:00
  TRACK 71 AUDIO
    TITLE "3:cjc114_5058"
    INDEX 01 01:21:02
  TRACK 72 AUDIO
    TITLE "0:"
    INDEX 01 01:22:25
  TRACK 73 AUDIO
    TITLE "4:cjc114_5059"
    INDEX 01 01:22:27
  TRACK 74 AUDIO
    TITLE "0:"
    INDEX 01 01:25:43
